<svg width="420" height="210" viewBox="0 0 420 210" fill="none" xmlns="http://www.w3.org/2000/svg">
<path d="M106.71 0.589993C57.804 -0.0662565 13.335 33.434 2.46 82.617C-9.97 138.828 26.042 194.647 82.722 206.977C139.402 219.305 195.712 183.629 208.142 127.422V127.418C208.814 125.176 208.517 122.762 207.322 120.742C206.13 118.727 204.146 117.293 201.849 116.777C199.548 116.266 197.138 116.719 195.189 118.031C193.24 119.348 191.923 121.402 191.56 123.715C181.099 171.008 133.935 200.942 86.2499 190.57C38.5619 180.195 8.58188 133.609 19.0429 86.32C29.5039 39.027 76.4919 9.269 124.173 19.64C151.114 25.4994 173.614 43.507 185.208 68.328H185.212C186.575 71.2811 189.52 73.1991 192.794 73.2655C193.032 73.2772 193.266 73.2772 193.501 73.2655H390.711L401.824 92.6675L389.476 114.188C386.777 118.867 387.882 124.543 391.945 126.887C396.007 129.231 401.417 127.336 404.117 122.652L418.582 97.7811C419.339 96.6639 419.652 95.4803 419.816 94.078C419.882 93.703 419.968 93.3866 419.992 93.0194C419.992 92.8084 420.004 92.5311 419.992 92.3124C419.988 91.8866 419.871 91.4882 419.816 91.078C419.64 89.7968 419.254 88.5897 418.582 87.5507V87.3749C418.265 86.91 417.937 86.3515 417.523 85.9647L404.117 62.6797C403.258 61.1914 402.051 60.0469 400.765 59.1524C399.953 58.586 399.015 58.2071 398.121 57.918C397.687 57.7774 397.324 57.6367 396.887 57.5664C394.512 56.793 392.047 56.3359 389.476 56.332L198.786 55.9805C198.568 55.9805 198.458 55.9766 198.259 55.9805C183.794 29.0975 157.896 9.80446 127.7 3.23846C120.614 1.69546 113.696 0.687661 106.708 0.593961L106.71 0.589993Z" fill="black"/>
<path d="M88.59 72.93C77.402 68.805 64.348 71.3597 55.567 80.3714C43.672 92.5824 43.919 112.387 56.1295 124.281C68.3405 136.176 88.1455 135.929 100.04 123.715C111.161 112.297 111.138 94.488 101.176 82.469L101.18 82.4729C100.786 81.4846 100.211 80.5823 99.4809 79.8088C99.4419 79.7307 99.4028 79.6526 99.3598 79.5744C99.2036 79.4533 99.0434 79.3401 98.8833 79.2307C98.8364 79.1877 98.7505 79.219 98.7075 79.176H98.7036C98.6645 79.0979 98.6255 79.0197 98.5825 78.9416C98.063 78.5822 97.5044 78.2776 96.9184 78.0393C96.8207 77.9612 96.6606 78.0041 96.5629 77.9299C96.352 77.7854 96.1332 77.6565 95.9106 77.5315C93.5434 75.7854 91.2622 73.9143 88.5903 72.926L88.59 72.93ZM77.391 87.727C80.8754 87.6411 84.4613 89.02 87.2777 91.5708C87.3285 91.6255 87.4066 91.5708 87.4535 91.6255V91.6294C87.4965 91.7075 87.5355 91.7817 87.5785 91.8599C93.2347 97.3677 93.3246 106.106 87.8168 111.762C82.309 117.418 73.5708 117.508 67.9148 111.996C62.2586 106.488 62.1687 97.7503 67.6765 92.0943C70.3835 89.3131 73.8484 87.8091 77.3913 87.7232L77.391 87.727Z" fill="black"/>
</svg>
