<svg width="344" height="539" viewBox="0 0 344 539" fill="none" xmlns="http://www.w3.org/2000/svg">
<path d="M205.734 0H137.566C111.886 0.027344 87.265 10.242 69.105 28.402C50.945 46.562 40.73 71.183 40.703 96.863V227.193H11.668C5.2227 227.193 0 232.416 0 238.861V420.621V420.617C0.035156 451.82 12.445 481.734 34.508 503.801C56.574 525.863 86.488 538.274 117.692 538.309H225.602C256.805 538.274 286.719 525.864 308.786 503.801C330.848 481.735 343.259 451.821 343.294 420.617V238.867C343.298 235.769 342.067 232.805 339.88 230.613C337.692 228.426 334.724 227.199 331.63 227.199H302.599V96.8691C302.572 71.1891 292.357 46.5681 274.197 28.4081C256.037 10.2481 231.416 0.033094 205.736 0.00609398L205.734 0ZM64.034 96.863C64.0574 77.367 71.8113 58.679 85.596 44.894C99.381 31.109 118.069 23.355 137.565 23.332H205.733C225.225 23.3554 243.917 31.1093 257.702 44.894C271.487 58.679 279.241 77.367 279.264 96.863V227.193H64.034V96.863ZM319.964 420.613C319.937 445.633 309.987 469.617 292.296 487.304C274.608 504.995 250.624 514.945 225.605 514.972H117.695C92.679 514.945 68.695 504.992 51.004 487.304C33.316 469.613 23.363 445.628 23.336 420.613V303.163H226.136C232.581 303.163 237.804 297.94 237.804 291.495C237.804 285.054 232.581 279.831 226.136 279.831H23.336V250.526H319.966L319.964 420.613Z" fill="black"/>
<path d="M268.124 283.272C265.956 285.483 264.741 288.456 264.741 291.553C264.741 297.999 269.964 303.221 276.409 303.221C282.851 303.221 288.073 297.999 288.073 291.553C288.081 288.456 286.866 285.479 284.69 283.272C280.015 278.952 272.803 278.952 268.124 283.272H268.124Z" fill="black"/>
<path d="M171.644 331.782C158.128 331.782 145.164 337.149 135.605 346.708C126.046 356.267 120.679 369.231 120.679 382.747C120.675 396.267 126.046 409.227 135.605 418.786C145.16 428.345 158.125 433.716 171.64 433.716C185.16 433.72 198.124 428.349 207.683 418.794C217.242 409.235 222.613 396.271 222.613 382.755C222.597 369.243 217.222 356.286 207.668 346.732C198.113 337.173 185.16 331.798 171.645 331.783L171.644 331.782ZM171.644 410.384C164.316 410.384 157.289 407.474 152.105 402.29C146.921 397.107 144.011 390.075 144.011 382.747C144.011 375.419 146.925 368.388 152.109 363.208C157.289 358.025 164.32 355.114 171.648 355.114C178.98 355.114 186.007 358.028 191.191 363.212C196.371 368.396 199.281 375.427 199.281 382.755C199.269 390.079 196.355 397.103 191.175 402.282C185.996 407.462 178.972 410.376 171.644 410.384L171.644 410.384Z" fill="black"/>
</svg>
